<?xml version="1.0" encoding="UTF-8"?>
<svg enable-background="new 0 0 780 501" version="1.1" viewBox="0 0 780 501" xml:space="preserve" xmlns="http://www.w3.org/2000/svg"><title>discover</title><desc>Created with Sketch.</desc><path d="m409.41 197.76c30.938 0 56.02 23.58 56.02 52.709v0.033c0 29.129-25.082 52.742-56.02 52.742-30.941 0-56.022-23.613-56.022-52.742v-0.033c0-29.129 25.081-52.709 56.022-52.709z" fill="#F47216"/><path d="m321.43 198.44c8.836 0 16.247 1.785 25.269 6.09v22.752c-8.544-7.863-15.955-11.154-25.757-11.154-19.265 0-34.413 15.015-34.413 34.051 0 20.074 14.681 34.195 35.368 34.195 9.313 0 16.586-3.12 24.802-10.856v22.764c-9.343 4.141-16.912 5.775-25.757 5.775-31.277 0-55.581-22.597-55.581-51.737-1e-3 -28.828 24.95-51.88 56.069-51.88z"/><path d="m224.32 199.06c11.546 0 22.109 3.721 30.942 10.994l-10.748 13.248c-5.351-5.646-10.411-8.027-16.563-8.027-8.854 0-15.301 4.745-15.301 10.988 0 5.354 3.618 8.188 15.944 12.482 23.364 8.043 30.289 15.176 30.289 30.926 0 19.193-14.976 32.554-36.319 32.554-15.631 0-26.993-5.795-36.457-18.871l13.268-12.031c4.73 8.609 12.622 13.223 22.42 13.223 9.163 0 15.947-5.951 15.947-13.984 0-4.164-2.056-7.733-6.158-10.258-2.066-1.195-6.158-2.977-14.199-5.646-19.292-6.538-25.91-13.527-25.91-27.186-1e-3 -16.226 14.213-28.412 32.845-28.412z"/><polygon points="459.04 200.79 481.48 200.79 509.56 267.38 538.01 200.79 560.28 200.79 514.78 302.48 503.73 302.48"/><polygon points="157.83 200.94 178.37 200.94 178.37 300.09 157.83 300.09"/><polygon points="569.56 200.94 627.82 200.94 627.82 217.74 590.09 217.74 590.09 239.75 626.43 239.75 626.43 256.54 590.09 256.54 590.09 283.3 627.82 283.3 627.82 300.09 569.56 300.09"/><path d="m685.16 258.32c15.471-2.965 23.984-12.926 23.984-28.105 0-18.562-13.576-29.271-37.266-29.271h-30.454v99.143h20.516v-39.829h2.68l28.43 39.828h25.26l-33.15-41.766zm-17.218-11.736h-6.002v-30.025h6.326c12.791 0 19.744 5.049 19.744 14.697 2e-3 9.966-6.951 15.328-20.068 15.328z"/><path d="m91.845 200.94h-30.149v99.143h29.992c15.946 0 27.465-3.543 37.573-11.445 12.014-9.36 19.117-23.467 19.117-38.057 1e-3 -29.259-23.221-49.641-56.533-49.641zm23.997 74.479c-6.454 5.484-14.837 7.879-28.108 7.879h-5.514v-65.559h5.513c13.271 0 21.323 2.238 28.108 8.018 7.104 5.956 11.377 15.183 11.377 24.682 1e-3 9.513-4.273 19.024-11.376 24.98z"/></svg>
