<?xml version="1.0" encoding="UTF-8"?>
<svg enable-background="new 0 0 750 471" version="1.1" viewBox="0 0 750 471" xml:space="preserve" xmlns="http://www.w3.org/2000/svg"><title>Slice 1</title><desc>Created with Sketch.</desc><path d="m278.2 334.23 33.36-195.76h53.358l-33.384 195.76h-53.334z" fill="#0E4595"/><path d="m524.31 142.69c-10.57-3.966-27.135-8.222-47.822-8.222-52.725 0-89.863 26.551-90.18 64.604-0.297 28.129 26.514 43.821 46.754 53.185 20.77 9.597 27.752 15.716 27.652 24.283-0.133 13.123-16.586 19.116-31.924 19.116-21.355 0-32.701-2.967-50.225-10.274l-6.877-3.112-7.488 43.823c12.463 5.466 35.508 10.199 59.438 10.445 56.09 0 92.502-26.248 92.916-66.884 0.199-22.27-14.016-39.216-44.801-53.188-18.65-9.056-30.072-15.099-29.951-24.269 0-8.137 9.668-16.838 30.559-16.838 17.447-0.271 30.088 3.534 39.936 7.5l4.781 2.259 7.232-42.428" fill="#0E4595"/><path d="m661.62 138.46h-41.23c-12.773 0-22.332 3.486-27.941 16.234l-79.244 179.4h56.031s9.16-24.121 11.232-29.418c6.123 0 60.555 0.084 68.336 0.084 1.596 6.854 6.492 29.334 6.492 29.334h49.512l-43.188-195.64zm-65.417 126.41c4.414-11.279 21.26-54.724 21.26-54.724-0.314 0.521 4.381-11.334 7.074-18.684l3.607 16.878s10.217 46.729 12.352 56.527h-44.293v3e-3z" fill="#0E4595"/><path d="m232.9 138.46-52.239 133.5-5.565-27.129c-9.726-31.274-40.025-65.157-73.898-82.12l47.767 171.2 56.455-0.064 84.004-195.39-56.524-1e-3" fill="#0E4595"/><path d="m131.92 138.46h-86.041l-0.682 4.073c66.939 16.204 111.23 55.363 129.62 102.42l-18.709-89.96c-3.229-12.396-12.597-16.096-24.186-16.528" fill="#F2AE14"/></svg>
