<?xml version="1.0" encoding="UTF-8"?>
<svg enable-background="new 0 0 750 471" version="1.1" viewBox="0 0 750 471" xml:space="preserve" xmlns="http://www.w3.org/2000/svg"><title>Slice 1</title><desc>Created with Sketch.</desc><path d="m617.24 346.77c0 41.615-33.729 75.36-75.357 75.36h-409.13v-297.88c0-41.626 33.73-75.371 75.364-75.371h409.12v297.89h-1e-3z" fill="#fff"/><linearGradient id="c" x1="824.74" x2="825.74" y1="333.78" y2="333.78" gradientTransform="matrix(132.87 0 0 -323.02 -109130 108055)" gradientUnits="userSpaceOnUse"><stop stop-color="#007B40" offset="0"/><stop stop-color="#55B330" offset="1"/></linearGradient><path d="m483.86 242.04c11.686 0.254 23.439-0.516 35.078 0.4 11.787 2.199 14.627 20.043 4.156 25.887-7.145 3.85-15.633 1.434-23.379 2.113h-15.855v-28.4zm41.834-32.145c2.596 9.164-6.238 17.392-15.064 16.13h-26.77c0.188-8.642-0.367-18.022 0.273-26.209 10.723 0.302 21.547-0.616 32.209 0.48 4.58 1.151 8.414 4.917 9.352 9.599zm64.425-135.9c0.498 17.501 0.072 35.927 0.215 53.783-0.033 72.596 0.07 145.2-0.057 217.79-0.469 27.207-24.582 50.847-51.6 51.39-27.045 0.11-54.094 0.017-81.143 0.047v-109.75c29.471-0.153 58.957 0.308 88.416-0.231 13.666-0.858 28.635-9.875 29.271-24.914 1.609-15.103-12.631-25.551-26.152-27.201-5.197-0.135-5.045-1.515 0-2.117 12.895-2.787 23.021-16.133 19.227-29.499-3.234-14.058-18.771-19.499-31.695-19.472-26.352-0.179-52.709-0.025-79.063-0.077 0.17-20.489-0.355-41 0.283-61.474 2.088-26.716 26.807-48.748 53.447-48.27 26.287-3e-3 52.57-3e-3 78.851-4e-3z" fill="url(#c)"/><linearGradient id="b" x1="824.76" x2="825.75" y1="333.78" y2="333.78" gradientTransform="matrix(133.43 0 0 -323.02 -109888 108054)" gradientUnits="userSpaceOnUse"><stop stop-color="#1D2970" offset="0"/><stop stop-color="#006DBA" offset="1"/></linearGradient><path d="m159.74 125.04c0.673-27.164 24.888-50.611 51.872-51.008 26.945-0.083 53.894-0.012 80.839-0.036-0.074 90.885 0.146 181.78-0.111 272.66-1.038 26.834-24.989 49.834-51.679 50.309-26.996 0.098-53.995 0.014-80.992 0.041v-113.45c26.223 6.195 53.722 8.832 80.474 4.723 15.991-2.574 33.487-10.426 38.901-27.016 3.984-14.191 1.741-29.126 2.334-43.691v-33.825h-46.297c-0.208 22.371 0.426 44.781-0.335 67.125-1.248 13.734-14.849 22.46-27.802 21.994-16.064 0.17-47.897-11.641-47.897-11.641-0.08-41.915 0.466-94.406 0.693-136.18z" fill="url(#b)"/><linearGradient id="a" x1="824.74" x2="825.74" y1="333.78" y2="333.78" gradientTransform="matrix(132.96 0 0 -323.03 -109348 108056)" gradientUnits="userSpaceOnUse"><stop stop-color="#6E2B2F" offset="0"/><stop stop-color="#E30138" offset="1"/></linearGradient><path d="m309.72 197.39c-2.437 0.517-0.491-8.301-1.114-11.646 0.166-21.15-0.346-42.323 0.284-63.458 2.082-26.829 26.991-48.916 53.738-48.288h78.767c-0.074 90.885 0.145 181.78-0.111 272.66-1.039 26.834-24.992 49.833-51.682 50.309-26.998 0.101-53.998 0.015-80.997 0.042v-124.3c18.44 15.129 43.5 17.484 66.472 17.525 17.318-6e-3 34.535-2.676 51.353-6.67v-22.772c-18.953 9.446-41.234 15.446-62.244 10.019-14.656-3.649-25.294-17.813-25.057-32.937-1.698-15.729 7.522-32.335 22.979-37.011 19.192-6.008 40.108-1.413 58.096 6.398 3.855 2.018 7.766 4.521 6.225-1.921v-17.899c-30.086-7.158-62.104-9.792-92.33-2.005-8.748 2.468-17.272 6.211-24.379 11.956z" fill="url(#a)"/></svg>
