<?xml version="1.0" encoding="UTF-8"?>
<svg enable-background="new 0 0 750 471" version="1.1" viewBox="0 0 750 471" xml:space="preserve" xmlns="http://www.w3.org/2000/svg"><title>diners</title><desc>Created with Sketch.</desc><path d="m584.93 236.95c0-99.416-82.98-168.13-173.9-168.1h-78.241c-92.003-0.033-167.73 68.705-167.73 168.1 0 90.931 75.729 165.64 167.73 165.2h78.241c90.913 0.437 173.9-74.293 173.9-165.2z" fill="#0079BE"/><path d="m333.28 82.932c-84.069 0.026-152.19 68.308-152.22 152.58 0.021 84.258 68.145 152.53 152.22 152.56 84.088-0.026 152.23-68.301 152.24-152.56-0.012-84.274-68.151-152.55-152.24-152.58z" fill="#fff"/><path d="m237.07 235.1c0.08-41.18 25.747-76.296 61.94-90.25v180.48c-36.193-13.946-61.861-49.044-61.94-90.229zm131 90.275v-180.52c36.208 13.921 61.915 49.057 61.981 90.256-0.066 41.212-25.773 76.322-61.981 90.269z" fill="#0079BE"/></svg>
