<?xml version="1.0" encoding="UTF-8"?>
<svg class="ccicon" version="1.1" viewBox="0 0 750 471" xmlns="http://www.w3.org/2000/svg">
<g fill="none" fill-rule="evenodd">
<g fill-rule="nonzero">
<rect width="750" height="471" rx="40" fill="#0079BE"/>
<path id="a" d="m584.93 237.95c0-99.416-82.981-168.13-173.89-168.1h-78.242c-92.003-0.033066-167.73 68.705-167.73 168.1 0 90.93 75.728 165.64 167.73 165.2h78.242c90.914 0.43581 173.89-74.293 173.89-165.2z" fill="#fff"/>
<path d="m333.28 83.931c-84.07 0.026453-152.19 68.307-152.21 152.58 0.0198 84.258 68.144 152.53 152.21 152.56 84.09-0.026453 152.23-68.301 152.24-152.56-0.012539-84.272-68.15-152.55-152.24-152.58z" fill="#0079BE"/>
<path d="m237.07 236.1c0.079199-41.18 25.746-76.296 61.94-90.251v180.48c-36.194-13.947-61.862-49.043-61.94-90.229zm131 90.275v-180.53c36.207 13.921 61.914 49.057 61.98 90.257-0.066 41.213-25.773 76.322-61.98 90.269z" fill="#fff"/>
</g>
</g>
</svg>
