<?xml version="1.0" encoding="UTF-8"?>
<svg class="ccicon" version="1.1" viewBox="0 0 750 471" xmlns="http://www.w3.org/2000/svg">
<g fill="none" fill-rule="evenodd">
<g fill-rule="nonzero">
<rect width="750" height="471" rx="40" fill="#0E4595"/>
<polygon points="278.2 334.23 311.56 138.47 364.92 138.47 331.53 334.23" fill="#fff"/>
<path d="m524.31 142.69c-10.572-3.966-27.136-8.222-47.823-8.222-52.724 0-89.864 26.551-90.18 64.604-0.297 28.129 26.514 43.821 46.754 53.185 20.769 9.595 27.752 15.715 27.653 24.283-0.132 13.122-16.586 19.117-31.923 19.117-21.357 0-32.703-2.967-50.226-10.276l-6.876-3.112-7.489 43.824c12.463 5.464 35.509 10.199 59.438 10.444 56.089 0 92.501-26.247 92.915-66.882 0.201-22.269-14.015-39.217-44.799-53.188-18.651-9.056-30.073-15.099-29.952-24.269 0-8.137 9.668-16.838 30.557-16.838 17.449-0.271 30.088 3.534 39.936 7.5l4.782 2.259 7.233-42.429" fill="#fff"/>
<path d="m661.61 138.47h-41.231c-12.773 0-22.331 3.486-27.941 16.234l-79.245 179.4h56.031s9.162-24.122 11.234-29.418c6.123 0 60.554 0.084 68.336 0.084 1.596 6.853 6.492 29.334 6.492 29.334h49.512l-43.188-195.64zm-65.417 126.41c4.413-11.279 21.259-54.723 21.259-54.723-0.315 0.521 4.38-11.334 7.075-18.684l3.607 16.878s10.217 46.729 12.352 56.528h-44.293v1e-3z" fill="#fff"/>
<path d="m232.9 138.47-52.24 133.5-5.566-27.129c-9.725-31.274-40.025-65.156-73.899-82.119l47.767 171.2 56.455-0.065 84.004-195.38h-56.521" fill="#fff"/>
<path d="m131.92 138.47h-86.041l-0.681 4.073c66.939 16.204 111.23 55.363 129.62 102.41l-18.709-89.96c-3.23-12.396-12.598-16.095-24.187-16.527" fill="#F2AE14"/>
</g>
</g>
</svg>
